<?xml version="1.0" encoding="utf-8"?>
<!-- Generator: Adobe Illustrator 22.1.0, SVG Export Plug-In . SVG Version: 6.00 Build 0)  -->
<svg version="1.1" id="Layer_1" xmlns="http://www.w3.org/2000/svg" xmlns:xlink="http://www.w3.org/1999/xlink" x="0px" y="0px"
	 viewBox="0 0 128 128" style="enable-background:new 0 0 128 128;" xml:space="preserve">
	<style type="text/css">
		.st0{fill:url(#SVGID_1_);}
		.st1{fill:url(#SVGID_2_);}
		.st2{fill:url(#SVGID_3_);}
		.st3{fill:url(#SVGID_4_);}
		.st4{fill:url(#SVGID_5_);}
	</style>
	<g>
		<linearGradient id="SVGID_1_" gradientUnits="userSpaceOnUse" x1="64" y1="128" x2="64" y2="0" gradientTransform="matrix(1 0 0 -1 0 128)">
			<stop  offset="0" style="stop-color:#6666CC"/>
			<stop  offset="1" style="stop-color:#352777"/>
		</linearGradient>
		<rect y="0" class="st0" width="128" height="128"/>
	</g>
	<g>
		<g>
			<linearGradient id="SVGID_2_" gradientUnits="userSpaceOnUse" x1="15.6261" y1="14.7975" x2="82.9321" y2="86.6409" gradientTransform="matrix(1 0 0 -1 0 128)">
				<stop  offset="0" style="stop-color:#FFFFFF"/>
				<stop  offset="1" style="stop-color:#FFF100"/>
			</linearGradient>
			<path class="st1" d="M59.6,41.7c1.3,0,2.7,0.1,4,0.4c1.7,0.4,3.6,0.8,5.1,2.1c0-0.1,0.1-0.1,0.1-0.3c2.8-2.8,5.6-5.6,8.4-8.4
				c0.4-0.4,0.7-0.7,1.1-1.1c2-1.6,4.3-2.5,6.8-2.4c2.5,0.1,4.4,1.2,6,3.2c1.7,2.3,2,4.8,1.3,7.5c-0.5,1.9-1.6,3.5-2.9,4.8
				c-4.3,4.3-8.4,8.5-12.6,12.6c1.3-0.3,2.7-0.4,4.1-0.4c3.1,0,5.9,0.7,8.5,1.7c2.4-2.4,4.7-4.7,7.1-7.1c0.9-0.9,1.7-2,2.5-3.1
				c3.1-4.5,4.3-9.5,3.2-14.8c-0.9-5.1-3.6-8.9-7.9-11.7c-2.3-1.5-4.8-2.4-7.5-2.7c-0.4,0-0.8-0.1-1.3-0.1c-0.7,0-1.3,0-2.1,0
				c-0.1,0-0.1,0-0.3,0c-0.9,0.1-1.9,0.1-2.8,0.4c-3.9,0.8-7.2,2.7-10,5.5c-4.8,4.8-9.6,9.6-14.4,14.4c0,0,0,0.1-0.1,0.1
				c0.3-0.1,0.4-0.3,0.7-0.4C57.6,41.9,58.6,41.7,59.6,41.7z"/>
			<linearGradient id="SVGID_3_" gradientUnits="userSpaceOnUse" x1="15.8942" y1="14.5463" x2="83.2002" y2="86.3898" gradientTransform="matrix(1 0 0 -1 0 128)">
				<stop  offset="0" style="stop-color:#FFFFFF"/>
				<stop  offset="1" style="stop-color:#FFF100"/>
			</linearGradient>
			<path class="st2" d="M66,66c-0.3,0-0.5-0.1-0.7-0.1c-1.6-0.3-2.9-1.1-4.1-2.1c-1.3-1.3-2.9-1.7-4.8-1.2c-1.9,0.5-3.1,1.7-3.6,3.5
				c-0.5,1.9,0,3.5,1.3,4.8c1.9,1.9,4,3.2,6.3,4C61.6,71.4,63.5,68.4,66,66z"/>
		</g>
		<linearGradient id="SVGID_4_" gradientUnits="userSpaceOnUse" x1="34.6658" y1="-3.0397" x2="101.9718" y2="68.8037" gradientTransform="matrix(1 0 0 -1 0 128)">
			<stop  offset="0" style="stop-color:#FFFFFF"/>
			<stop  offset="1" style="stop-color:#FFF100"/>
		</linearGradient>
		<path class="st3" d="M81.1,96.4c-8.3,0-14.9-6.7-14.9-14.9s6.7-14.9,14.9-14.9c8.1,0,14.8,6.8,14.8,14.9
			C96,89.8,89.2,96.4,81.1,96.4z M81.1,83.9c2.5,0,5.1,0,7.6,0c0.8,0,0.9-0.3,0.9-1.1c0-0.9,0-1.7,0-2.7s-0.1-1.1-1.1-1.1
			c-1.6,0-3.3,0-4.9,0c-3.3,0-6.7,0-10,0c-0.9,0-1.1,0.3-1.1,1.1c0,0.8,0,1.6,0,2.4c0,1.1,0.1,1.2,1.2,1.2
			C76.1,83.9,78.5,83.9,81.1,83.9z"/>
		<linearGradient id="SVGID_5_" gradientUnits="userSpaceOnUse" x1="14.03" y1="16.2928" x2="81.3358" y2="88.1363" gradientTransform="matrix(1 0 0 -1 0 128)">
			<stop  offset="0" style="stop-color:#FFFFFF"/>
			<stop  offset="1" style="stop-color:#FFF100"/>
		</linearGradient>
		<path class="st4" d="M59.4,80.3c0-0.8,0-1.6,0.1-2.3c-0.4-0.1-0.7-0.4-1.1-0.7l-0.1,0.1c-2.8,2.8-5.6,5.6-8.4,8.4
			c-0.9,0.9-2,1.7-3.2,2.4c-2,0.9-4.1,1.3-6.3,0.8c-3.9-0.9-7.1-5.1-5.9-10c0.5-2,1.6-3.7,2.9-5.2c5.1-5.1,10.1-10.3,15.2-15.3
			c0.9-0.9,2-1.7,3.2-2.3c1.9-0.8,3.7-1.2,5.7-0.8c1.6,0.3,3.1,1.1,4.3,2.3c1.3,1.3,2.9,1.7,4.7,1.2c1.9-0.4,3.1-1.6,3.6-3.5
			c0.5-1.9,0.1-3.6-1.3-4.9c-4.7-4.5-10.3-6-16.5-4.8c-4.1,0.8-7.6,2.7-10.5,5.6c-5.2,5.2-10.4,10.3-15.4,15.4
			c-1.2,1.2-2.1,2.4-2.9,3.9c-1.6,2.7-2.7,5.6-2.9,8.7c0,0.4,0,0.7-0.1,1.1c0,0.4,0,0.7,0,1.1c0,0.4,0,0.8,0.1,1.2
			c0.5,6.8,4.9,12.6,11.2,15.2c1.9,0.8,3.9,1.2,5.9,1.3c0.1,0,0.1,0,0.3,0c0.5,0,1.1,0,1.5,0c0.1,0,0.3,0,0.3,0
			c0.8-0.1,1.7-0.1,2.5-0.3c4-0.8,7.6-2.7,10.5-5.6c1.5-1.5,3.1-2.9,4.5-4.5C60,86.3,59.4,83.4,59.4,80.3z"/>
	</g>
</svg>
