<?xml version="1.0" encoding="utf-8"?>
<!-- Generator: Adobe Illustrator 22.1.0, SVG Export Plug-In . SVG Version: 6.00 Build 0)  -->
<svg version="1.1" id="Layer_1" xmlns="http://www.w3.org/2000/svg" xmlns:xlink="http://www.w3.org/1999/xlink" x="0px" y="0px"
	 viewBox="0 0 128 128" style="enable-background:new 0 0 128 128;" xml:space="preserve">
<style type="text/css">
	.st0{fill:url(#SVGID_1_);}
	.st1{fill:url(#SVGID_2_);}
	.st2{fill:url(#SVGID_3_);}
	.st3{fill:url(#SVGID_4_);}
	.st4{fill:url(#SVGID_5_);}
</style>
<g>
	<linearGradient id="SVGID_1_" gradientUnits="userSpaceOnUse" x1="63.7709" y1="16.0031" x2="63.7709" y2="111.9969">
		<stop  offset="0" style="stop-color:#6666CC"/>
		<stop  offset="1" style="stop-color:#352777"/>
	</linearGradient>
	<rect x="15.8" y="16" class="st0" width="96" height="96"/>
</g>
<g>
	<g>
		<linearGradient id="SVGID_2_" gradientUnits="userSpaceOnUse" x1="27.6502" y1="100.9897" x2="78.2087" y2="47.0228">
			<stop  offset="0" style="stop-color:#FFFFFF"/>
			<stop  offset="1" style="stop-color:#FFF100"/>
		</linearGradient>
		<path class="st1" d="M60.6,47.2c1,0,2,0.1,3,0.3c1.3,0.3,2.7,0.6,3.8,1.6c0-0.1,0.1-0.1,0.1-0.2c2.1-2.1,4.2-4.2,6.3-6.3
			c0.3-0.3,0.5-0.5,0.8-0.8c1.5-1.2,3.2-1.9,5.1-1.8c1.9,0.1,3.3,0.9,4.5,2.4c1.3,1.7,1.5,3.6,1,5.6c-0.4,1.4-1.2,2.6-2.2,3.6
			c-3.2,3.2-6.3,6.4-9.5,9.5c1-0.2,2-0.3,3.1-0.3c2.3,0,4.4,0.5,6.4,1.3c1.8-1.8,3.5-3.5,5.3-5.3c0.7-0.7,1.3-1.5,1.9-2.3
			c2.3-3.4,3.2-7.1,2.4-11.1c-0.7-3.8-2.7-6.7-5.9-8.8c-1.7-1.1-3.6-1.8-5.6-2c-0.3,0-0.6-0.1-1-0.1c-0.5,0-1,0-1.6,0
			c-0.1,0-0.1,0-0.2,0c-0.7,0.1-1.4,0.1-2.1,0.3c-2.9,0.6-5.4,2-7.5,4.1c-3.6,3.6-7.2,7.2-10.8,10.8c0,0,0,0.1-0.1,0.1
			c0.2-0.1,0.3-0.2,0.5-0.3C59.1,47.3,59.8,47.2,60.6,47.2z"/>
		<linearGradient id="SVGID_3_" gradientUnits="userSpaceOnUse" x1="27.7636" y1="101.096" x2="78.3221" y2="47.129">
			<stop  offset="0" style="stop-color:#FFFFFF"/>
			<stop  offset="1" style="stop-color:#FFF100"/>
		</linearGradient>
		<path class="st2" d="M65.4,65.4c-0.2,0-0.4-0.1-0.5-0.1c-1.2-0.2-2.2-0.8-3.1-1.6c-1-1-2.2-1.3-3.6-0.9c-1.4,0.4-2.3,1.3-2.7,2.6
			c-0.4,1.4,0,2.6,1,3.6c1.4,1.4,3,2.4,4.7,3C62.1,69.5,63.5,67.2,65.4,65.4z"/>
	</g>
	<linearGradient id="SVGID_4_" gradientUnits="userSpaceOnUse" x1="41.8595" y1="114.3016" x2="92.418" y2="60.3347">
		<stop  offset="0" style="stop-color:#FFFFFF"/>
		<stop  offset="1" style="stop-color:#FFF100"/>
	</linearGradient>
	<path class="st3" d="M76.7,88.3c-6.2,0-11.2-5-11.2-11.2c0-6.2,5-11.2,11.2-11.2c6.1,0,11.1,5.1,11.1,11.2
		C87.9,83.3,82.8,88.3,76.7,88.3z M76.7,78.9c1.9,0,3.8,0,5.7,0c0.6,0,0.7-0.2,0.7-0.8c0-0.7,0-1.3,0-2c0-0.7-0.1-0.8-0.8-0.8
		c-1.2,0-2.5,0-3.7,0c-2.5,0-5,0-7.5,0c-0.7,0-0.8,0.2-0.8,0.8c0,0.6,0,1.2,0,1.8c0,0.8,0.1,0.9,0.9,0.9
		C73,78.9,74.8,78.9,76.7,78.9z"/>
	<linearGradient id="SVGID_5_" gradientUnits="userSpaceOnUse" x1="26.3993" y1="99.8178" x2="76.9577" y2="45.8509">
		<stop  offset="0" style="stop-color:#FFFFFF"/>
		<stop  offset="1" style="stop-color:#FFF100"/>
	</linearGradient>
	<path class="st4" d="M60.4,76.2c0-0.6,0-1.2,0.1-1.7c-0.3-0.1-0.5-0.3-0.8-0.5c0,0-0.1,0.1-0.1,0.1c-2.1,2.1-4.2,4.2-6.3,6.3
		c-0.7,0.7-1.5,1.3-2.4,1.8c-1.5,0.7-3.1,1-4.7,0.6c-2.9-0.7-5.3-3.8-4.4-7.5c0.4-1.5,1.2-2.8,2.2-3.9c3.8-3.8,7.6-7.7,11.4-11.5
		c0.7-0.7,1.5-1.3,2.4-1.7c1.4-0.6,2.8-0.9,4.3-0.6c1.2,0.2,2.3,0.8,3.2,1.7c1,1,2.2,1.3,3.5,0.9c1.4-0.3,2.3-1.2,2.7-2.6
		c0.4-1.4,0.1-2.7-1-3.7c-3.5-3.4-7.7-4.5-12.4-3.6c-3.1,0.6-5.7,2-7.9,4.2c-3.9,3.9-7.8,7.7-11.6,11.6c-0.9,0.9-1.6,1.8-2.2,2.9
		c-1.2,2-2,4.2-2.2,6.5c0,0.3,0,0.5-0.1,0.8c0,0.3,0,0.5,0,0.8c0,0.3,0,0.6,0.1,0.9c0.4,5.1,3.7,9.5,8.4,11.4c1.4,0.6,2.9,0.9,4.4,1
		c0.1,0,0.1,0,0.2,0c0.4,0,0.8,0,1.1,0c0.1,0,0.2,0,0.2,0c0.6-0.1,1.3-0.1,1.9-0.2c3-0.6,5.7-2,7.9-4.2c1.1-1.1,2.3-2.2,3.4-3.4
		C60.9,80.7,60.4,78.5,60.4,76.2z"/>
</g>
</svg>
